<svg id="visual" viewBox="0 0 900 600" width="900" height="600" xmlns="http://www.w3.org/2000/svg" xmlns:xlink="http://www.w3.org/1999/xlink" version="1.1"><rect x="0" y="0" width="900" height="600" fill="#931C1C"></rect><path d="M0 274L129 372L257 382L386 367L514 333L643 320L771 378L900 363L900 601L771 601L643 601L514 601L386 601L257 601L129 601L0 601Z" fill="#f5730a"></path><path d="M0 401L129 414L257 414L386 331L514 395L643 398L771 356L900 366L900 601L771 601L643 601L514 601L386 601L257 601L129 601L0 601Z" fill="#da5b09"></path><path d="M0 416L129 470L257 444L386 437L514 470L643 448L771 394L900 422L900 601L771 601L643 601L514 601L386 601L257 601L129 601L0 601Z" fill="#be4407"></path><path d="M0 484L129 499L257 440L386 493L514 500L643 454L771 440L900 507L900 601L771 601L643 601L514 601L386 601L257 601L129 601L0 601Z" fill="#a32d04"></path><path d="M0 508L129 519L257 513L386 518L514 544L643 555L771 539L900 521L900 601L771 601L643 601L514 601L386 601L257 601L129 601L0 601Z" fill="#871400"></path></svg>