<svg id="visual" viewBox="0 0 900 600" width="900" height="600" xmlns="http://www.w3.org/2000/svg" xmlns:xlink="http://www.w3.org/1999/xlink" version="1.1"><rect width="900" height="600" fill="#038373"></rect><g><g transform="translate(500 158)"><path d="M87.3 -24.4C100.7 12.9 90.6 61.8 58.1 87C25.6 112.3 -29.2 114 -62.9 88.9C-96.6 63.9 -109.2 12.2 -95.2 -25.9C-81.2 -64 -40.6 -88.4 -1.8 -87.8C37 -87.2 73.9 -61.6 87.3 -24.4Z" fill="#00CC8E"></path></g><g transform="translate(741 455)"><path d="M59.7 -16.6C68.4 7.2 60.1 39.3 39.7 54C19.3 68.7 -13.3 65.9 -34.7 49.9C-56.1 33.8 -66.3 4.5 -58.7 -18C-51 -40.4 -25.5 -56 0 -56C25.5 -56 51.1 -40.4 59.7 -16.6Z" fill="#00CC8E"></path></g><g transform="translate(225 472)"><path d="M100.1 -32.4C111.3 1.7 89 46.9 53.8 72C18.5 97.2 -29.9 102.4 -62.4 80.1C-95 57.8 -111.8 8 -98.8 -28.7C-85.7 -65.4 -42.9 -89.1 0.8 -89.3C44.5 -89.6 89 -66.5 100.1 -32.4Z" fill="#00CC8E"></path></g><g transform="translate(86 146)"><path d="M65.7 -20.3C76.3 11.6 70.2 49.9 48 66.1C25.7 82.2 -12.6 76.2 -38.6 56.6C-64.6 36.9 -78.2 3.5 -69.7 -25.3C-61.2 -54.2 -30.6 -78.6 -1.6 -78.1C27.5 -77.5 55 -52.2 65.7 -20.3Z" fill="#00CC8E"></path></g><g transform="translate(878 7)"><path d="M69 -26.3C77.3 3.4 63.8 36.2 40.4 52.5C17 68.7 -16.2 68.4 -38 52.5C-59.9 36.6 -70.4 5.2 -62.1 -24.3C-53.9 -53.8 -26.9 -81.4 1.7 -81.9C30.3 -82.5 60.6 -56 69 -26.3Z" fill="#00CC8E"></path></g></g></svg>