<svg id="visual" viewBox="0 0 900 600" width="900" height="600" xmlns="http://www.w3.org/2000/svg" xmlns:xlink="http://www.w3.org/1999/xlink" version="1.1"><rect x="0" y="0" width="900" height="600" fill="#001220"></rect><defs><linearGradient id="grad1_0" x1="33.3%" y1="0%" x2="100%" y2="100%"><stop offset="20%" stop-color="#001220" stop-opacity="1"></stop><stop offset="80%" stop-color="#001220" stop-opacity="1"></stop></linearGradient></defs><defs><linearGradient id="grad2_0" x1="0%" y1="0%" x2="66.7%" y2="100%"><stop offset="20%" stop-color="#001220" stop-opacity="1"></stop><stop offset="80%" stop-color="#001220" stop-opacity="1"></stop></linearGradient></defs><g transform="translate(900, 0)"><path d="M0 486.7C-55.4 465 -110.8 443.2 -176 425C-241.3 406.7 -316.3 392 -344.2 344.2C-372.1 296.4 -352.7 215.6 -368.6 152.7C-384.5 89.8 -435.6 44.9 -486.7 0L0 0Z" fill="#FBAE3C"></path></g><g transform="translate(0, 600)"><path d="M0 -486.7C62.3 -476.9 124.6 -467 184.5 -445.3C244.3 -423.6 301.6 -390.1 344.2 -344.2C386.8 -298.3 414.8 -240 436.1 -180.6C457.4 -121.2 472.1 -60.6 486.7 0L0 0Z" fill="#FBAE3C"></path></g></svg>