<svg id="visual" viewBox="0 0 900 600" width="900" height="600" xmlns="http://www.w3.org/2000/svg" xmlns:xlink="http://www.w3.org/1999/xlink" version="1.1"><g stroke-width="1" stroke-linejoin="bevel"><path d="M407 280L377 220L328 235Z" fill="#00101c" stroke="#00101c"></path><path d="M328 235L302 277L407 280Z" fill="#1d4e6b" stroke="#1d4e6b"></path><path d="M407 280L476 224L377 220Z" fill="#15384f" stroke="#15384f"></path><path d="M302 277L308 383L407 280Z" fill="#246688" stroke="#246688"></path><path d="M407 280L530 269L476 224Z" fill="#277297" stroke="#277297"></path><path d="M308 383L417 394L407 280Z" fill="#112e42" stroke="#112e42"></path><path d="M306 111L226 179L328 235Z" fill="#081a28" stroke="#081a28"></path><path d="M328 235L226 179L302 277Z" fill="#297ea6" stroke="#297ea6"></path><path d="M302 277L162 337L308 383Z" fill="#246688" stroke="#246688"></path><path d="M306 111L328 235L377 220Z" fill="#19435d" stroke="#19435d"></path><path d="M360 68L306 111L377 220Z" fill="#15384f" stroke="#15384f"></path><path d="M491 397L530 269L407 280Z" fill="#081a28" stroke="#081a28"></path><path d="M417 394L491 397L407 280Z" fill="#112e42" stroke="#112e42"></path><path d="M505 111L377 220L476 224Z" fill="#00101c" stroke="#00101c"></path><path d="M505 111L360 68L377 220Z" fill="#1d4e6b" stroke="#1d4e6b"></path><path d="M308 383L391 467L417 394Z" fill="#0c2435" stroke="#0c2435"></path><path d="M417 394L501 475L491 397Z" fill="#205a7a" stroke="#205a7a"></path><path d="M530 269L505 111L476 224Z" fill="#00101c" stroke="#00101c"></path><path d="M226 179L162 337L302 277Z" fill="#205a7a" stroke="#205a7a"></path><path d="M308 383L283 499L391 467Z" fill="#081a28" stroke="#081a28"></path><path d="M292 0L216 101L306 111Z" fill="#1d4e6b" stroke="#1d4e6b"></path><path d="M306 111L216 101L226 179Z" fill="#0c2435" stroke="#0c2435"></path><path d="M90 205L126 329L162 337Z" fill="#246688" stroke="#246688"></path><path d="M90 205L162 337L226 179Z" fill="#277297" stroke="#277297"></path><path d="M162 418L283 499L308 383Z" fill="#081a28" stroke="#081a28"></path><path d="M162 418L308 383L162 337Z" fill="#15384f" stroke="#15384f"></path><path d="M391 467L501 475L417 394Z" fill="#1d4e6b" stroke="#1d4e6b"></path><path d="M491 397L631 304L530 269Z" fill="#19435d" stroke="#19435d"></path><path d="M422 600L501 475L391 467Z" fill="#00101c" stroke="#00101c"></path><path d="M128 390L162 418L162 337Z" fill="#00101c" stroke="#00101c"></path><path d="M484 0L390 0L360 68Z" fill="#297ea6" stroke="#297ea6"></path><path d="M360 68L292 0L306 111Z" fill="#0c2435" stroke="#0c2435"></path><path d="M126 329L128 390L162 337Z" fill="#0c2435" stroke="#0c2435"></path><path d="M637 396L631 304L491 397Z" fill="#19435d" stroke="#19435d"></path><path d="M530 269L635 230L505 111Z" fill="#246688" stroke="#246688"></path><path d="M631 304L635 230L530 269Z" fill="#246688" stroke="#246688"></path><path d="M505 111L484 0L360 68Z" fill="#081a28" stroke="#081a28"></path><path d="M390 0L292 0L360 68Z" fill="#15384f" stroke="#15384f"></path><path d="M119 121L226 179L216 101Z" fill="#205a7a" stroke="#205a7a"></path><path d="M119 121L90 205L226 179Z" fill="#1d4e6b" stroke="#1d4e6b"></path><path d="M126 329L0 317L128 390Z" fill="#19435d" stroke="#19435d"></path><path d="M185 0L119 121L216 101Z" fill="#0c2435" stroke="#0c2435"></path><path d="M162 418L171 479L283 499Z" fill="#112e42" stroke="#112e42"></path><path d="M137 504L171 479L162 418Z" fill="#277297" stroke="#277297"></path><path d="M615 0L484 0L505 111Z" fill="#297ea6" stroke="#297ea6"></path><path d="M501 475L637 396L491 397Z" fill="#00101c" stroke="#00101c"></path><path d="M631 304L701 308L635 230Z" fill="#205a7a" stroke="#205a7a"></path><path d="M635 230L628 113L505 111Z" fill="#0c2435" stroke="#0c2435"></path><path d="M292 0L185 0L216 101Z" fill="#081a28" stroke="#081a28"></path><path d="M128 390L137 504L162 418Z" fill="#112e42" stroke="#112e42"></path><path d="M174 600L265 600L283 499Z" fill="#19435d" stroke="#19435d"></path><path d="M0 463L137 504L128 390Z" fill="#246688" stroke="#246688"></path><path d="M637 396L701 308L631 304Z" fill="#0c2435" stroke="#0c2435"></path><path d="M635 230L699 184L628 113Z" fill="#1d4e6b" stroke="#1d4e6b"></path><path d="M265 600L422 600L283 499Z" fill="#112e42" stroke="#112e42"></path><path d="M283 499L422 600L391 467Z" fill="#112e42" stroke="#112e42"></path><path d="M501 475L601 518L637 396Z" fill="#297ea6" stroke="#297ea6"></path><path d="M701 308L699 184L635 230Z" fill="#246688" stroke="#246688"></path><path d="M503 600L601 518L501 475Z" fill="#277297" stroke="#277297"></path><path d="M637 396L714 426L701 308Z" fill="#00101c" stroke="#00101c"></path><path d="M174 600L283 499L171 479Z" fill="#00101c" stroke="#00101c"></path><path d="M185 0L126 0L119 121Z" fill="#0c2435" stroke="#0c2435"></path><path d="M0 193L0 317L90 205Z" fill="#112e42" stroke="#112e42"></path><path d="M422 600L503 600L501 475Z" fill="#1d4e6b" stroke="#1d4e6b"></path><path d="M668 0L615 0L628 113Z" fill="#081a28" stroke="#081a28"></path><path d="M628 113L615 0L505 111Z" fill="#0c2435" stroke="#0c2435"></path><path d="M0 193L90 205L0 127Z" fill="#15384f" stroke="#15384f"></path><path d="M90 205L0 317L126 329Z" fill="#19435d" stroke="#19435d"></path><path d="M0 127L90 205L119 121Z" fill="#19435d" stroke="#19435d"></path><path d="M76 600L174 600L137 504Z" fill="#277297" stroke="#277297"></path><path d="M137 504L174 600L171 479Z" fill="#246688" stroke="#246688"></path><path d="M703 464L637 396L601 518Z" fill="#297ea6" stroke="#297ea6"></path><path d="M703 464L714 426L637 396Z" fill="#277297" stroke="#277297"></path><path d="M785 219L728 94L699 184Z" fill="#205a7a" stroke="#205a7a"></path><path d="M0 0L0 127L119 121Z" fill="#246688" stroke="#246688"></path><path d="M0 317L0 413L128 390Z" fill="#277297" stroke="#277297"></path><path d="M704 600L703 464L601 518Z" fill="#19435d" stroke="#19435d"></path><path d="M699 184L728 94L628 113Z" fill="#297ea6" stroke="#297ea6"></path><path d="M785 219L699 184L701 308Z" fill="#205a7a" stroke="#205a7a"></path><path d="M728 94L668 0L628 113Z" fill="#277297" stroke="#277297"></path><path d="M772 414L701 308L714 426Z" fill="#277297" stroke="#277297"></path><path d="M772 414L772 298L701 308Z" fill="#246688" stroke="#246688"></path><path d="M0 413L0 463L128 390Z" fill="#0c2435" stroke="#0c2435"></path><path d="M772 298L785 219L701 308Z" fill="#19435d" stroke="#19435d"></path><path d="M503 600L624 600L601 518Z" fill="#277297" stroke="#277297"></path><path d="M815 480L772 414L703 464Z" fill="#277297" stroke="#277297"></path><path d="M703 464L772 414L714 426Z" fill="#1d4e6b" stroke="#1d4e6b"></path><path d="M772 298L900 271L785 219Z" fill="#112e42" stroke="#112e42"></path><path d="M0 463L76 600L137 504Z" fill="#081a28" stroke="#081a28"></path><path d="M126 0L0 0L119 121Z" fill="#1d4e6b" stroke="#1d4e6b"></path><path d="M624 600L704 600L601 518Z" fill="#00101c" stroke="#00101c"></path><path d="M785 219L804 61L728 94Z" fill="#205a7a" stroke="#205a7a"></path><path d="M728 94L813 0L668 0Z" fill="#1d4e6b" stroke="#1d4e6b"></path><path d="M900 176L804 61L785 219Z" fill="#1d4e6b" stroke="#1d4e6b"></path><path d="M0 463L0 600L76 600Z" fill="#277297" stroke="#277297"></path><path d="M789 600L815 480L703 464Z" fill="#297ea6" stroke="#297ea6"></path><path d="M900 418L900 271L772 298Z" fill="#297ea6" stroke="#297ea6"></path><path d="M900 71L813 0L804 61Z" fill="#081a28" stroke="#081a28"></path><path d="M804 61L813 0L728 94Z" fill="#0c2435" stroke="#0c2435"></path><path d="M900 418L772 298L772 414Z" fill="#205a7a" stroke="#205a7a"></path><path d="M704 600L789 600L703 464Z" fill="#0c2435" stroke="#0c2435"></path><path d="M815 480L900 418L772 414Z" fill="#19435d" stroke="#19435d"></path><path d="M900 271L900 176L785 219Z" fill="#15384f" stroke="#15384f"></path><path d="M900 467L900 418L815 480Z" fill="#205a7a" stroke="#205a7a"></path><path d="M900 176L900 71L804 61Z" fill="#112e42" stroke="#112e42"></path><path d="M900 600L900 467L815 480Z" fill="#205a7a" stroke="#205a7a"></path><path d="M900 71L900 0L813 0Z" fill="#1d4e6b" stroke="#1d4e6b"></path><path d="M789 600L900 600L815 480Z" fill="#0c2435" stroke="#0c2435"></path></g></svg>