<svg id="visual" viewBox="0 0 960 540" width="960" height="540" xmlns="http://www.w3.org/2000/svg" xmlns:xlink="http://www.w3.org/1999/xlink" version="1.1"><rect x="0" y="0" width="960" height="540" fill="#8a2be2"></rect><path d="M0 416L16 420.2C32 424.3 64 432.7 96 436.8C128 441 160 441 192 443.2C224 445.3 256 449.7 288 451.2C320 452.7 352 451.3 384 448.3C416 445.3 448 440.7 480 441.7C512 442.7 544 449.3 576 449.5C608 449.7 640 443.3 672 440.2C704 437 736 437 768 438.7C800 440.3 832 443.7 864 449.3C896 455 928 463 944 467L960 471L960 541L944 541C928 541 896 541 864 541C832 541 800 541 768 541C736 541 704 541 672 541C640 541 608 541 576 541C544 541 512 541 480 541C448 541 416 541 384 541C352 541 320 541 288 541C256 541 224 541 192 541C160 541 128 541 96 541C64 541 32 541 16 541L0 541Z" fill="#431073"></path><path d="M0 497L16 495.7C32 494.3 64 491.7 96 485.8C128 480 160 471 192 472.5C224 474 256 486 288 493C320 500 352 502 384 500C416 498 448 492 480 488C512 484 544 482 576 485C608 488 640 496 672 499.8C704 503.7 736 503.3 768 498.8C800 494.3 832 485.7 864 477.7C896 469.7 928 462.3 944 458.7L960 455L960 541L944 541C928 541 896 541 864 541C832 541 800 541 768 541C736 541 704 541 672 541C640 541 608 541 576 541C544 541 512 541 480 541C448 541 416 541 384 541C352 541 320 541 288 541C256 541 224 541 192 541C160 541 128 541 96 541C64 541 32 541 16 541L0 541Z" fill="#1c0532"></path></svg>